{
    "asset" : {
        "generator" : "Khronos glTF Blender I/O v1.6.16",
        "version" : "2.0"
    },
    "scene" : 0,
    "scenes" : [
        {
            "name" : "Scene",
            "nodes" : [
                0
            ]
        }
    ],
    "nodes" : [
        {
            "mesh" : 0,
            "name" : "Plane.003"
        }
    ],
    "materials" : [
        {
            "doubleSided" : true,
            "name" : "Blank.001",
            "pbrMetallicRoughness" : {
                "baseColorTexture" : {
                    "index" : 0
                },
                "metallicFactor" : 0,
                "roughnessFactor" : 0.5
            }
        },
        {
            "doubleSided" : true,
            "name" : "Blank",
            "pbrMetallicRoughness" : {
                "baseColorFactor" : [
                    0.6880812048912048,
                    0,
                    0.29889538884162903,
                    1
                ],
                "metallicFactor" : 0,
                "roughnessFactor" : 0.5
            }
        },
        {
            "doubleSided" : true,
            "name" : "Whitepaint",
            "pbrMetallicRoughness" : {
                "metallicFactor" : 0,
                "roughnessFactor" : 0.20000000298023224
            }
        },
        {
            "doubleSided" : true,
            "name" : "Blackglass",
            "pbrMetallicRoughness" : {
                "baseColorFactor" : [
                    0,
                    0,
                    0,
                    1
                ],
                "metallicFactor" : 0,
                "roughnessFactor" : 0
            }
        },
        {
            "doubleSided" : true,
            "name" : "Nipatexture",
            "pbrMetallicRoughness" : {
                "baseColorTexture" : {
                    "index" : 1
                },
                "metallicFactor" : 0,
                "roughnessFactor" : 0.5
            }
        },
        {
            "doubleSided" : true,
            "name" : "RailingBrown",
            "pbrMetallicRoughness" : {
                "baseColorFactor" : [
                    0.14240095019340515,
                    0.019798643887043,
                    0.005439984146505594,
                    1
                ],
                "metallicFactor" : 0,
                "roughnessFactor" : 0.5
            }
        }
    ],
    "meshes" : [
        {
            "name" : "Plane.024",
            "primitives" : [
                {
                    "attributes" : {
                        "POSITION" : 0,
                        "NORMAL" : 1,
                        "TEXCOORD_0" : 2
                    },
                    "indices" : 3,
                    "material" : 0
                },
                {
                    "attributes" : {
                        "POSITION" : 4,
                        "NORMAL" : 5,
                        "TEXCOORD_0" : 6
                    },
                    "indices" : 7,
                    "material" : 1
                },
                {
                    "attributes" : {
                        "POSITION" : 8,
                        "NORMAL" : 9,
                        "TEXCOORD_0" : 10
                    },
                    "indices" : 11,
                    "material" : 2
                },
                {
                    "attributes" : {
                        "POSITION" : 12,
                        "NORMAL" : 13,
                        "TEXCOORD_0" : 14
                    },
                    "indices" : 15,
                    "material" : 3
                },
                {
                    "attributes" : {
                        "POSITION" : 16,
                        "NORMAL" : 17,
                        "TEXCOORD_0" : 18
                    },
                    "indices" : 19,
                    "material" : 4
                },
                {
                    "attributes" : {
                        "POSITION" : 20,
                        "NORMAL" : 21,
                        "TEXCOORD_0" : 22
                    },
                    "indices" : 23,
                    "material" : 5
                }
            ]
        }
    ],
    "textures" : [
        {
            "sampler" : 0,
            "source" : 0
        },
        {
            "sampler" : 0,
            "source" : 1
        }
    ],
    "images" : [
        {
            "bufferView" : 4,
            "mimeType" : "image/jpeg",
            "name" : "1000_F_87077230_Hg942iJzUIUHGDeak2YR7DsApkic2rNA"
        },
        {
            "bufferView" : 21,
            "mimeType" : "image/jpeg",
            "name" : "Nipatexture"
        }
    ],
    "accessors" : [
        {
            "bufferView" : 0,
            "componentType" : 5126,
            "count" : 734,
            "max" : [
                4.621541500091553,
                0.8976086378097534,
                4.588476657867432
            ],
            "min" : [
                -4.726317882537842,
                -3.1923913955688477,
                -4.726317882537842
            ],
            "type" : "VEC3"
        },
        {
            "bufferView" : 1,
            "componentType" : 5126,
            "count" : 734,
            "type" : "VEC3"
        },
        {
            "bufferView" : 2,
            "componentType" : 5126,
            "count" : 734,
            "type" : "VEC2"
        },
        {
            "bufferView" : 3,
            "componentType" : 5123,
            "count" : 1608,
            "type" : "SCALAR"
        },
        {
            "bufferView" : 5,
            "componentType" : 5126,
            "count" : 608,
            "max" : [
                4.621541500091553,
                3.8328046798706055,
                4.588476657867432
            ],
            "min" : [
                -4.726317882537842,
                -3.1923913955688477,
                -4.726317882537842
            ],
            "type" : "VEC3"
        },
        {
            "bufferView" : 6,
            "componentType" : 5126,
            "count" : 608,
            "type" : "VEC3"
        },
        {
            "bufferView" : 7,
            "componentType" : 5126,
            "count" : 608,
            "type" : "VEC2"
        },
        {
            "bufferView" : 8,
            "componentType" : 5123,
            "count" : 1404,
            "type" : "SCALAR"
        },
        {
            "bufferView" : 9,
            "componentType" : 5126,
            "count" : 293,
            "max" : [
                4.621541500091553,
                3.8328046798706055,
                4.588476657867432
            ],
            "min" : [
                -4.726317882537842,
                -3.1923913955688477,
                -4.726317882537842
            ],
            "type" : "VEC3"
        },
        {
            "bufferView" : 10,
            "componentType" : 5126,
            "count" : 293,
            "type" : "VEC3"
        },
        {
            "bufferView" : 11,
            "componentType" : 5126,
            "count" : 293,
            "type" : "VEC2"
        },
        {
            "bufferView" : 12,
            "componentType" : 5123,
            "count" : 654,
            "type" : "SCALAR"
        },
        {
            "bufferView" : 13,
            "componentType" : 5126,
            "count" : 38,
            "max" : [
                3.1540937423706055,
                3.292388916015625,
                3.1540937423706055
            ],
            "min" : [
                -3.1540937423706055,
                0.8976086378097534,
                -3.1540937423706055
            ],
            "type" : "VEC3"
        },
        {
            "bufferView" : 14,
            "componentType" : 5126,
            "count" : 38,
            "type" : "VEC3"
        },
        {
            "bufferView" : 15,
            "componentType" : 5126,
            "count" : 38,
            "type" : "VEC2"
        },
        {
            "bufferView" : 16,
            "componentType" : 5123,
            "count" : 60,
            "type" : "SCALAR"
        },
        {
            "bufferView" : 17,
            "componentType" : 5126,
            "count" : 32,
            "max" : [
                4.621541500091553,
                6.658562660217285,
                4.588476657867432
            ],
            "min" : [
                -4.726317882537842,
                3.8328044414520264,
                -4.726317882537842
            ],
            "type" : "VEC3"
        },
        {
            "bufferView" : 18,
            "componentType" : 5126,
            "count" : 32,
            "type" : "VEC3"
        },
        {
            "bufferView" : 19,
            "componentType" : 5126,
            "count" : 32,
            "type" : "VEC2"
        },
        {
            "bufferView" : 20,
            "componentType" : 5123,
            "count" : 36,
            "type" : "SCALAR"
        },
        {
            "bufferView" : 22,
            "componentType" : 5126,
            "count" : 3050,
            "max" : [
                4.55483865737915,
                1.8457914590835571,
                4.533153057098389
            ],
            "min" : [
                -4.654740810394287,
                -3.1923913955688477,
                -4.678618907928467
            ],
            "type" : "VEC3"
        },
        {
            "bufferView" : 23,
            "componentType" : 5126,
            "count" : 3050,
            "type" : "VEC3"
        },
        {
            "bufferView" : 24,
            "componentType" : 5126,
            "count" : 3050,
            "type" : "VEC2"
        },
        {
            "bufferView" : 25,
            "componentType" : 5123,
            "count" : 4824,
            "type" : "SCALAR"
        }
    ],
    "bufferViews" : [
        {
            "buffer" : 0,
            "byteLength" : 8808,
            "byteOffset" : 0
        },
        {
            "buffer" : 0,
            "byteLength" : 8808,
            "byteOffset" : 8808
        },
        {
            "buffer" : 0,
            "byteLength" : 5872,
            "byteOffset" : 17616
        },
        {
            "buffer" : 0,
            "byteLength" : 3216,
            "byteOffset" : 23488
        },
        {
            "buffer" : 0,
            "byteLength" : 319383,
            "byteOffset" : 26704
        },
        {
            "buffer" : 0,
            "byteLength" : 7296,
            "byteOffset" : 346088
        },
        {
            "buffer" : 0,
            "byteLength" : 7296,
            "byteOffset" : 353384
        },
        {
            "buffer" : 0,
            "byteLength" : 4864,
            "byteOffset" : 360680
        },
        {
            "buffer" : 0,
            "byteLength" : 2808,
            "byteOffset" : 365544
        },
        {
            "buffer" : 0,
            "byteLength" : 3516,
            "byteOffset" : 368352
        },
        {
            "buffer" : 0,
            "byteLength" : 3516,
            "byteOffset" : 371868
        },
        {
            "buffer" : 0,
            "byteLength" : 2344,
            "byteOffset" : 375384
        },
        {
            "buffer" : 0,
            "byteLength" : 1308,
            "byteOffset" : 377728
        },
        {
            "buffer" : 0,
            "byteLength" : 456,
            "byteOffset" : 379036
        },
        {
            "buffer" : 0,
            "byteLength" : 456,
            "byteOffset" : 379492
        },
        {
            "buffer" : 0,
            "byteLength" : 304,
            "byteOffset" : 379948
        },
        {
            "buffer" : 0,
            "byteLength" : 120,
            "byteOffset" : 380252
        },
        {
            "buffer" : 0,
            "byteLength" : 384,
            "byteOffset" : 380372
        },
        {
            "buffer" : 0,
            "byteLength" : 384,
            "byteOffset" : 380756
        },
        {
            "buffer" : 0,
            "byteLength" : 256,
            "byteOffset" : 381140
        },
        {
            "buffer" : 0,
            "byteLength" : 72,
            "byteOffset" : 381396
        },
        {
            "buffer" : 0,
            "byteLength" : 90504,
            "byteOffset" : 381468
        },
        {
            "buffer" : 0,
            "byteLength" : 36600,
            "byteOffset" : 471972
        },
        {
            "buffer" : 0,
            "byteLength" : 36600,
            "byteOffset" : 508572
        },
        {
            "buffer" : 0,
            "byteLength" : 24400,
            "byteOffset" : 545172
        },
        {
            "buffer" : 0,
            "byteLength" : 9648,
            "byteOffset" : 569572
        }
    ],
    "samplers" : [
        {
            "magFilter" : 9729,
            "minFilter" : 9987
        }
    ],
    "buffers" : [
        {
            "byteLength" : 579220,
            "uri" : "data:application/octet-stream;base64,"
        }
    ]
}
